<?xml version="1.0" encoding="utf-8"?><svg version="1.1" id="Layer_1" xmlns="http://www.w3.org/2000/svg" xmlns:xlink="http://www.w3.org/1999/xlink" x="0px" y="0px" viewBox="0 0 122.88 95.19" style="enable-background:new 0 0 122.88 95.19" xml:space="preserve"><g><path class="st0" d="M2.49,20.74h4.5v-9.86c0-1.37,1.11-2.48,2.48-2.48h4.41V2.48c0-1.37,1.11-2.48,2.48-2.48h40.26 c1.37,0,2.48,1.11,2.48,2.48V8.4h54.29c1.37,0,2.48,1.11,2.48,2.48v9.86h4.53c1.37,0,2.48,1.11,2.48,2.48 c0,0.18-0.02,0.36-0.06,0.52l-8.68,63.8c-0.28,2.08-1.19,4.01-2.59,5.41c-1.38,1.38-3.21,2.24-5.36,2.24H14.7 c-2.16,0-4.03-0.87-5.43-2.26c-1.41-1.41-2.31-3.35-2.54-5.46L0.01,23.48c-0.14-1.36,0.85-2.58,2.21-2.72 C2.32,20.75,2.4,20.75,2.49,20.74L2.49,20.74L2.49,20.74L2.49,20.74L2.49,20.74z M64.03,70.77c0,0.71-0.29,1.36-0.76,1.83 c-0.46,0.46-1.11,0.75-1.82,0.76h-0.02c-0.71,0-1.36-0.29-1.83-0.76c-0.46-0.46-0.75-1.11-0.76-1.82v-8.7h-8.69 c-0.71,0-1.36-0.29-1.83-0.76c-0.46-0.46-0.75-1.11-0.76-1.82v-0.02c0-0.71,0.29-1.36,0.76-1.83c0.46-0.46,1.11-0.75,1.82-0.76h8.7 v-8.69c0-0.71,0.29-1.36,0.76-1.83c0.46-0.46,1.11-0.75,1.82-0.76h0.02c0.71,0,1.36,0.29,1.83,0.76c0.46,0.46,0.75,1.11,0.76,1.82 v8.7h8.7l0,0c0.71,0,1.36,0.29,1.83,0.76c0.46,0.46,0.75,1.11,0.76,1.82v0.02c0,0.71-0.29,1.36-0.76,1.83 c-0.46,0.46-1.11,0.75-1.82,0.76h-8.71V70.77L64.03,70.77L64.03,70.77z M61.45,32c7.44,0,14.18,3.02,19.06,7.89 c4.88,4.88,7.89,11.61,7.89,19.05c0,7.44-3.02,14.19-7.89,19.06c-4.88,4.88-11.61,7.89-19.06,7.89c-7.44,0-14.18-3.02-19.06-7.89 c-4.88-4.88-7.89-11.61-7.89-19.06c0-7.44,3.02-14.18,7.89-19.05C47.27,35.02,54.01,32,61.45,32L61.45,32L61.45,32z M77.15,43.22 c-4.02-4.02-9.58-6.51-15.71-6.51c-6.14,0-11.69,2.49-15.71,6.51s-6.51,9.58-6.51,15.71c0,6.14,2.49,11.69,6.51,15.71 c4.02,4.02,9.58,6.51,15.71,6.51c6.14,0,11.69-2.49,15.71-6.51s6.51-9.58,6.51-15.71C83.66,52.8,81.18,47.24,77.15,43.22 L77.15,43.22L77.15,43.22z M9.47,25.71H5.24l6.43,61.26c0.1,0.98,0.5,1.85,1.1,2.46c0.5,0.5,1.17,0.81,1.93,0.81l91.49,0 c0.75,0,1.38-0.3,1.87-0.79c0.62-0.62,1.03-1.53,1.17-2.55l8.32-61.18L9.47,25.71L9.47,25.71L9.47,25.71L9.47,25.71z M11.95,13.37 v7.36l98.96-1.05v-6.31H56.62c-1.37,0-2.48-1.11-2.48-2.48V4.97h-35.3v5.92c0,1.37-1.11,2.48-2.48,2.48H11.95L11.95,13.37 L11.95,13.37L11.95,13.37z"/></g></svg>