<?xml version="1.0" encoding="UTF-8" standalone="no"?> 
<svg stroke="white" id="Layer_1" fill="white" data-name="Layer 1" xmlns="http://www.w3.org/2000/svg" viewBox="0 0 512 512"><title>Wallet</title><path d="M384,85.333V128H64a53.2,53.2,0,0,0-29.333,8.8A58.411,58.411,0,0,1,81.333,96.587L346.88,53.76A31.965,31.965,0,0,1,384,85.333Z"/><path d="M256,304a74.749,74.749,0,0,0,74.667,74.667h128v26.667a53.421,53.421,0,0,1-53.333,53.333h-320A53.421,53.421,0,0,1,32,405.333v-224a32.025,32.025,0,0,1,32-32H405.333a53.421,53.421,0,0,1,53.333,53.333v26.667h-128A74.749,74.749,0,0,0,256,304Z"/><path d="M458.667,250.667h-128a53.333,53.333,0,0,0,0,106.667h128A21.328,21.328,0,0,0,480,336V272A21.328,21.328,0,0,0,458.667,250.667Zm-128,74.667A21.333,21.333,0,1,1,352,304,21.328,21.328,0,0,1,330.667,325.333Z"/></svg>